<svg xmlns="http://www.w3.org/2000/svg" xmlns:xlink="http://www.w3.org/1999/xlink" width="200" zoomAndPan="magnify" viewBox="0 0 150 56.249996" height="75" preserveAspectRatio="xMidYMid meet" version="1.0"><defs><g/><clipPath id="8bd3481612"><path d="M 2 41 L 15 41 L 15 55 L 2 55 Z M 2 41 " clip-rule="nonzero"/></clipPath><clipPath id="c3d0b32058"><path d="M -22.527344 27.578125 L 7.824219 -2.773438 L 38.703125 28.101562 L 8.347656 58.457031 Z M -22.527344 27.578125 " clip-rule="nonzero"/></clipPath><clipPath id="657c92c110"><path d="M -22.527344 27.578125 L 7.824219 -2.773438 L 38.703125 28.101562 L 8.347656 58.457031 Z M -22.527344 27.578125 " clip-rule="nonzero"/></clipPath><clipPath id="7dbf702b8f"><path d="M -22.527344 27.578125 L 7.824219 -2.773438 L 38.703125 28.101562 L 8.347656 58.457031 Z M -22.527344 27.578125 " clip-rule="nonzero"/></clipPath><clipPath id="f46e854660"><path d="M 6 0 L 9 0 L 9 5 L 6 5 Z M 6 0 " clip-rule="nonzero"/></clipPath><clipPath id="5df79a89ed"><path d="M -22.527344 27.578125 L 7.824219 -2.773438 L 38.703125 28.101562 L 8.347656 58.457031 Z M -22.527344 27.578125 " clip-rule="nonzero"/></clipPath><clipPath id="a605ce95fb"><path d="M -22.527344 27.578125 L 7.824219 -2.773438 L 38.703125 28.101562 L 8.347656 58.457031 Z M -22.527344 27.578125 " clip-rule="nonzero"/></clipPath><clipPath id="badd148364"><path d="M -22.527344 27.578125 L 7.824219 -2.773438 L 38.703125 28.101562 L 8.347656 58.457031 Z M -22.527344 27.578125 " clip-rule="nonzero"/></clipPath><clipPath id="54c474dcae"><path d="M 3.558594 1.492188 L 7.8125 -2.761719 L 12.113281 1.539062 L 7.859375 5.796875 Z M 3.558594 1.492188 " clip-rule="nonzero"/></clipPath><clipPath id="aa29f6d2df"><path d="M 7 37 L 10 37 L 10 41 L 7 41 Z M 7 37 " clip-rule="nonzero"/></clipPath><clipPath id="1244f38443"><path d="M -22.527344 27.578125 L 7.824219 -2.773438 L 38.703125 28.101562 L 8.347656 58.457031 Z M -22.527344 27.578125 " clip-rule="nonzero"/></clipPath><clipPath id="4e6fea7988"><path d="M -22.527344 27.578125 L 7.824219 -2.773438 L 38.703125 28.101562 L 8.347656 58.457031 Z M -22.527344 27.578125 " clip-rule="nonzero"/></clipPath><clipPath id="b4bdf15f29"><path d="M -22.527344 27.578125 L 7.824219 -2.773438 L 38.703125 28.101562 L 8.347656 58.457031 Z M -22.527344 27.578125 " clip-rule="nonzero"/></clipPath><clipPath id="7850e048fd"><path d="M 7 5 L 9 5 L 9 37 L 7 37 Z M 7 5 " clip-rule="nonzero"/></clipPath><clipPath id="754f17f24b"><path d="M -22.527344 27.578125 L 7.824219 -2.773438 L 38.703125 28.101562 L 8.347656 58.457031 Z M -22.527344 27.578125 " clip-rule="nonzero"/></clipPath><clipPath id="4ee36774c8"><path d="M -22.527344 27.578125 L 7.824219 -2.773438 L 38.703125 28.101562 L 8.347656 58.457031 Z M -22.527344 27.578125 " clip-rule="nonzero"/></clipPath><clipPath id="05b41de1c1"><path d="M -22.527344 27.578125 L 7.824219 -2.773438 L 38.703125 28.101562 L 8.347656 58.457031 Z M -22.527344 27.578125 " clip-rule="nonzero"/></clipPath></defs><g clip-path="url(#8bd3481612)"><g clip-path="url(#c3d0b32058)"><g clip-path="url(#657c92c110)"><g clip-path="url(#7dbf702b8f)"><path fill="#61b1e6" d="M 13.613281 44.636719 C 13.390625 46.195312 13.148438 47.738281 12.925781 49.296875 C 12.761719 50.511719 12.597656 51.753906 12.417969 52.984375 C 12.34375 53.472656 11.589844 53.71875 11.179688 53.714844 C 10.214844 53.691406 9.253906 53.699219 8.308594 53.691406 C 7.359375 53.683594 6.414062 53.679688 5.46875 53.671875 C 5.027344 53.667969 4.285156 53.425781 4.21875 52.917969 C 4.019531 51.6875 3.820312 50.457031 3.621094 49.222656 C 3.371094 47.660156 3.121094 46.097656 2.890625 44.550781 C 2.707031 43.460938 3.519531 42.617188 4.59375 42.625 C 5.808594 42.617188 7.019531 42.644531 8.21875 42.652344 C 9.433594 42.648438 10.648438 42.671875 11.847656 42.683594 C 12.9375 42.675781 13.746094 43.546875 13.613281 44.636719 Z M 10.566406 41.992188 C 10.546875 41.628906 10.242188 41.328125 9.898438 41.324219 L 6.539062 41.316406 C 6.175781 41.296875 5.878906 41.59375 5.894531 41.957031 L 5.960938 41.957031 L 5.894531 41.957031 L 4.601562 41.945312 C 3.058594 41.933594 1.996094 43.1875 2.226562 44.640625 C 2.492188 46.34375 2.726562 47.890625 2.957031 49.3125 C 3.171875 50.65625 3.355469 51.871094 3.539062 53.023438 C 3.671875 53.75 4.527344 54.324219 5.457031 54.347656 C 6.421875 54.339844 7.367188 54.347656 8.3125 54.355469 C 9.257812 54.363281 10.222656 54.386719 11.167969 54.394531 C 12.113281 54.402344 12.976562 53.824219 13.082031 53.085938 C 13.230469 51.949219 13.410156 50.722656 13.589844 49.398438 C 13.796875 47.980469 14.023438 46.421875 14.261719 44.75 C 14.46875 43.300781 13.386719 42.03125 11.859375 42.003906 L 10.566406 41.992188 " fill-opacity="1" fill-rule="evenodd"/></g></g></g></g><g clip-path="url(#f46e854660)"><g clip-path="url(#5df79a89ed)"><g clip-path="url(#a605ce95fb)"><g clip-path="url(#badd148364)"><g clip-path="url(#54c474dcae)"><path fill="#61b1e6" d="M 7.816406 -2.3125 C 7.214844 -2.316406 6.730469 -1.832031 6.75 -1.25 L 6.78125 4.476562 C 6.800781 4.746094 7.007812 4.953125 7.257812 4.953125 L 8.488281 4.964844 C 8.742188 4.964844 8.960938 4.746094 8.957031 4.492188 L 8.914062 -1.214844 C 8.910156 -1.816406 8.414062 -2.308594 7.816406 -2.3125 " fill-opacity="1" fill-rule="evenodd"/></g></g></g></g></g><g clip-path="url(#aa29f6d2df)"><g clip-path="url(#1244f38443)"><g clip-path="url(#4e6fea7988)"><g clip-path="url(#b4bdf15f29)"><path fill="#61b1e6" d="M 7.375 37.550781 C 7.28125 37.550781 7.203125 37.628906 7.1875 37.738281 L 7.226562 40.625 L 9.101562 40.65625 L 9.078125 37.753906 C 9.0625 37.644531 8.984375 37.566406 8.890625 37.566406 L 7.375 37.550781 " fill-opacity="1" fill-rule="evenodd"/></g></g></g></g><g clip-path="url(#7850e048fd)"><g clip-path="url(#754f17f24b)"><g clip-path="url(#4ee36774c8)"><g clip-path="url(#05b41de1c1)"><path fill="#61b1e6" d="M 7.511719 36.875 L 8.742188 36.886719 L 8.492188 5.625 L 7.265625 5.617188 L 7.511719 36.875 " fill-opacity="1" fill-rule="evenodd"/></g></g></g></g><g fill="#7fdbff" fill-opacity="1"><g transform="translate(19.220129, 47.985553)"><g><path d="M 12.859375 -11.671875 C 12.859375 -10.296875 12.382812 -9.15625 11.4375 -8.25 C 10.5 -7.34375 9.070312 -6.890625 7.15625 -6.890625 L 3.984375 -6.890625 L 3.984375 0 L 1.828125 0 L 1.828125 -16.5 L 7.15625 -16.5 C 9.007812 -16.5 10.421875 -16.046875 11.390625 -15.140625 C 12.367188 -14.242188 12.859375 -13.085938 12.859375 -11.671875 Z M 7.15625 -8.65625 C 8.351562 -8.65625 9.234375 -8.914062 9.796875 -9.4375 C 10.367188 -9.957031 10.65625 -10.703125 10.65625 -11.671875 C 10.65625 -13.703125 9.488281 -14.71875 7.15625 -14.71875 L 3.984375 -14.71875 L 3.984375 -8.65625 Z M 7.15625 -8.65625 "/></g></g></g><g fill="#7fdbff" fill-opacity="1"><g transform="translate(32.666074, 47.985553)"><g><path d="M 3.984375 -16.5 L 3.984375 0 L 1.828125 0 L 1.828125 -16.5 Z M 3.984375 -16.5 "/></g></g></g><g fill="#7fdbff" fill-opacity="1"><g transform="translate(38.229047, 47.985553)"><g><path d="M 7.046875 0.171875 C 5.960938 0.171875 4.988281 -0.0195312 4.125 -0.40625 C 3.269531 -0.800781 2.597656 -1.335938 2.109375 -2.015625 C 1.617188 -2.703125 1.363281 -3.5 1.34375 -4.40625 L 3.640625 -4.40625 C 3.722656 -3.632812 4.039062 -2.984375 4.59375 -2.453125 C 5.15625 -1.921875 5.972656 -1.65625 7.046875 -1.65625 C 8.078125 -1.65625 8.890625 -1.910156 9.484375 -2.421875 C 10.078125 -2.941406 10.375 -3.601562 10.375 -4.40625 C 10.375 -5.03125 10.195312 -5.539062 9.84375 -5.9375 C 9.5 -6.332031 9.066406 -6.632812 8.546875 -6.84375 C 8.023438 -7.050781 7.320312 -7.269531 6.4375 -7.5 C 5.351562 -7.789062 4.484375 -8.078125 3.828125 -8.359375 C 3.171875 -8.640625 2.609375 -9.082031 2.140625 -9.6875 C 1.671875 -10.300781 1.4375 -11.117188 1.4375 -12.140625 C 1.4375 -13.046875 1.664062 -13.84375 2.125 -14.53125 C 2.582031 -15.226562 3.222656 -15.765625 4.046875 -16.140625 C 4.878906 -16.523438 5.832031 -16.71875 6.90625 -16.71875 C 8.457031 -16.71875 9.722656 -16.328125 10.703125 -15.546875 C 11.691406 -14.773438 12.25 -13.75 12.375 -12.46875 L 10.015625 -12.46875 C 9.929688 -13.101562 9.597656 -13.660156 9.015625 -14.140625 C 8.429688 -14.617188 7.660156 -14.859375 6.703125 -14.859375 C 5.796875 -14.859375 5.054688 -14.625 4.484375 -14.15625 C 3.921875 -13.695312 3.640625 -13.050781 3.640625 -12.21875 C 3.640625 -11.613281 3.804688 -11.117188 4.140625 -10.734375 C 4.484375 -10.359375 4.90625 -10.070312 5.40625 -9.875 C 5.90625 -9.6875 6.601562 -9.460938 7.5 -9.203125 C 8.59375 -8.910156 9.46875 -8.613281 10.125 -8.3125 C 10.789062 -8.019531 11.359375 -7.570312 11.828125 -6.96875 C 12.304688 -6.363281 12.546875 -5.539062 12.546875 -4.5 C 12.546875 -3.695312 12.332031 -2.9375 11.90625 -2.21875 C 11.476562 -1.507812 10.847656 -0.929688 10.015625 -0.484375 C 9.179688 -0.046875 8.191406 0.171875 7.046875 0.171875 Z M 7.046875 0.171875 "/></g></g></g><g fill="#7fdbff" fill-opacity="1"><g transform="translate(51.864371, 47.985553)"><g><path d="M 1.015625 -8.265625 C 1.015625 -9.867188 1.378906 -11.3125 2.109375 -12.59375 C 2.835938 -13.882812 3.828125 -14.894531 5.078125 -15.625 C 6.328125 -16.351562 7.71875 -16.71875 9.25 -16.71875 C 11.050781 -16.71875 12.625 -16.28125 13.96875 -15.40625 C 15.3125 -14.539062 16.289062 -13.3125 16.90625 -11.71875 L 14.328125 -11.71875 C 13.867188 -12.707031 13.207031 -13.46875 12.34375 -14 C 11.488281 -14.539062 10.457031 -14.8125 9.25 -14.8125 C 8.101562 -14.8125 7.070312 -14.539062 6.15625 -14 C 5.238281 -13.46875 4.519531 -12.707031 4 -11.71875 C 3.476562 -10.738281 3.21875 -9.585938 3.21875 -8.265625 C 3.21875 -6.953125 3.476562 -5.800781 4 -4.8125 C 4.519531 -3.832031 5.238281 -3.070312 6.15625 -2.53125 C 7.070312 -2 8.101562 -1.734375 9.25 -1.734375 C 10.457031 -1.734375 11.488281 -1.992188 12.34375 -2.515625 C 13.207031 -3.046875 13.867188 -3.8125 14.328125 -4.8125 L 16.90625 -4.8125 C 16.289062 -3.226562 15.3125 -2.003906 13.96875 -1.140625 C 12.625 -0.285156 11.050781 0.140625 9.25 0.140625 C 7.71875 0.140625 6.328125 -0.21875 5.078125 -0.9375 C 3.828125 -1.65625 2.835938 -2.648438 2.109375 -3.921875 C 1.378906 -5.203125 1.015625 -6.648438 1.015625 -8.265625 Z M 1.015625 -8.265625 "/></g></g></g><g fill="#7fdbff" fill-opacity="1"><g transform="translate(69.879141, 47.985553)"><g><path d="M 3.984375 -16.5 L 3.984375 0 L 1.828125 0 L 1.828125 -16.5 Z M 3.984375 -16.5 "/></g></g></g><g fill="#7fdbff" fill-opacity="1"><g transform="translate(75.442115, 47.985553)"><g><path d="M 14.796875 0 L 12.640625 0 L 3.984375 -13.140625 L 3.984375 0 L 1.828125 0 L 1.828125 -16.515625 L 3.984375 -16.515625 L 12.640625 -3.40625 L 12.640625 -16.515625 L 14.796875 -16.515625 Z M 14.796875 0 "/></g></g></g><g fill="#7fdbff" fill-opacity="1"><g transform="translate(91.82347, 47.985553)"><g><path d="M 11.578125 -3.671875 L 4.375 -3.671875 L 3.046875 0 L 0.78125 0 L 6.75 -16.40625 L 9.234375 -16.40625 L 15.171875 0 L 12.90625 0 Z M 10.953125 -5.421875 L 7.984375 -13.75 L 5 -5.421875 Z M 10.953125 -5.421875 "/></g></g></g><g fill="#7fdbff" fill-opacity="1"><g transform="translate(107.518316, 47.985553)"><g><path d="M 7.046875 0.171875 C 5.960938 0.171875 4.988281 -0.0195312 4.125 -0.40625 C 3.269531 -0.800781 2.597656 -1.335938 2.109375 -2.015625 C 1.617188 -2.703125 1.363281 -3.5 1.34375 -4.40625 L 3.640625 -4.40625 C 3.722656 -3.632812 4.039062 -2.984375 4.59375 -2.453125 C 5.15625 -1.921875 5.972656 -1.65625 7.046875 -1.65625 C 8.078125 -1.65625 8.890625 -1.910156 9.484375 -2.421875 C 10.078125 -2.941406 10.375 -3.601562 10.375 -4.40625 C 10.375 -5.03125 10.195312 -5.539062 9.84375 -5.9375 C 9.5 -6.332031 9.066406 -6.632812 8.546875 -6.84375 C 8.023438 -7.050781 7.320312 -7.269531 6.4375 -7.5 C 5.351562 -7.789062 4.484375 -8.078125 3.828125 -8.359375 C 3.171875 -8.640625 2.609375 -9.082031 2.140625 -9.6875 C 1.671875 -10.300781 1.4375 -11.117188 1.4375 -12.140625 C 1.4375 -13.046875 1.664062 -13.84375 2.125 -14.53125 C 2.582031 -15.226562 3.222656 -15.765625 4.046875 -16.140625 C 4.878906 -16.523438 5.832031 -16.71875 6.90625 -16.71875 C 8.457031 -16.71875 9.722656 -16.328125 10.703125 -15.546875 C 11.691406 -14.773438 12.25 -13.75 12.375 -12.46875 L 10.015625 -12.46875 C 9.929688 -13.101562 9.597656 -13.660156 9.015625 -14.140625 C 8.429688 -14.617188 7.660156 -14.859375 6.703125 -14.859375 C 5.796875 -14.859375 5.054688 -14.625 4.484375 -14.15625 C 3.921875 -13.695312 3.640625 -13.050781 3.640625 -12.21875 C 3.640625 -11.613281 3.804688 -11.117188 4.140625 -10.734375 C 4.484375 -10.359375 4.90625 -10.070312 5.40625 -9.875 C 5.90625 -9.6875 6.601562 -9.460938 7.5 -9.203125 C 8.59375 -8.910156 9.46875 -8.613281 10.125 -8.3125 C 10.789062 -8.019531 11.359375 -7.570312 11.828125 -6.96875 C 12.304688 -6.363281 12.546875 -5.539062 12.546875 -4.5 C 12.546875 -3.695312 12.332031 -2.9375 11.90625 -2.21875 C 11.476562 -1.507812 10.847656 -0.929688 10.015625 -0.484375 C 9.179688 -0.046875 8.191406 0.171875 7.046875 0.171875 Z M 7.046875 0.171875 "/></g></g></g><g fill="#124ebc" fill-opacity="1"><g transform="translate(19.220129, 29.694679)"><g><path d="M 0.9375 -10.078125 C 0.9375 -12.054688 1.363281 -13.820312 2.21875 -15.375 C 3.082031 -16.925781 4.28125 -18.132812 5.8125 -19 C 7.351562 -19.875 9.097656 -20.3125 11.046875 -20.3125 C 13.429688 -20.3125 15.472656 -19.679688 17.171875 -18.421875 C 18.867188 -17.160156 20 -15.445312 20.5625 -13.28125 L 15.1875 -13.28125 C 14.789062 -14.113281 14.222656 -14.75 13.484375 -15.1875 C 12.753906 -15.625 11.921875 -15.84375 10.984375 -15.84375 C 9.472656 -15.84375 8.25 -15.316406 7.3125 -14.265625 C 6.382812 -13.222656 5.921875 -11.828125 5.921875 -10.078125 C 5.921875 -8.316406 6.382812 -6.910156 7.3125 -5.859375 C 8.25 -4.816406 9.472656 -4.296875 10.984375 -4.296875 C 11.921875 -4.296875 12.753906 -4.515625 13.484375 -4.953125 C 14.222656 -5.390625 14.789062 -6.023438 15.1875 -6.859375 L 20.5625 -6.859375 C 20 -4.691406 18.867188 -2.984375 17.171875 -1.734375 C 15.472656 -0.484375 13.429688 0.140625 11.046875 0.140625 C 9.097656 0.140625 7.351562 -0.289062 5.8125 -1.15625 C 4.28125 -2.019531 3.082031 -3.222656 2.21875 -4.765625 C 1.363281 -6.316406 0.9375 -8.085938 0.9375 -10.078125 Z M 0.9375 -10.078125 "/></g></g></g><g fill="#124ebc" fill-opacity="1"><g transform="translate(40.706681, 29.694679)"><g><path d="M 6.671875 -3.78125 L 13.078125 -3.78125 L 13.078125 0 L 1.78125 0 L 1.78125 -20.078125 L 6.671875 -20.078125 Z M 6.671875 -3.78125 "/></g></g></g><g fill="#124ebc" fill-opacity="1"><g transform="translate(54.039183, 29.694679)"><g><path d="M 14.28125 -3.546875 L 6.78125 -3.546875 L 5.578125 0 L 0.453125 0 L 7.71875 -20.078125 L 13.390625 -20.078125 L 20.65625 0 L 15.484375 0 Z M 13.015625 -7.328125 L 10.53125 -14.671875 L 8.0625 -7.328125 Z M 13.015625 -7.328125 "/></g></g></g><g fill="#124ebc" fill-opacity="1"><g transform="translate(74.810458, 29.694679)"><g><path d="M 12.015625 0 L 7.84375 -7.578125 L 6.671875 -7.578125 L 6.671875 0 L 1.78125 0 L 1.78125 -20.078125 L 9.984375 -20.078125 C 11.566406 -20.078125 12.914062 -19.800781 14.03125 -19.25 C 15.144531 -18.695312 15.976562 -17.9375 16.53125 -16.96875 C 17.082031 -16.007812 17.359375 -14.941406 17.359375 -13.765625 C 17.359375 -12.429688 16.984375 -11.238281 16.234375 -10.1875 C 15.484375 -9.132812 14.375 -8.390625 12.90625 -7.953125 L 17.53125 0 Z M 6.671875 -11.046875 L 9.703125 -11.046875 C 10.597656 -11.046875 11.269531 -11.265625 11.71875 -11.703125 C 12.164062 -12.140625 12.390625 -12.757812 12.390625 -13.5625 C 12.390625 -14.320312 12.164062 -14.921875 11.71875 -15.359375 C 11.269531 -15.796875 10.597656 -16.015625 9.703125 -16.015625 L 6.671875 -16.015625 Z M 6.671875 -11.046875 "/></g></g></g><g fill="#124ebc" fill-opacity="1"><g transform="translate(93.149838, 29.694679)"><g><path d="M 6.671875 -16.171875 L 6.671875 -12.109375 L 13.21875 -12.109375 L 13.21875 -8.328125 L 6.671875 -8.328125 L 6.671875 -3.921875 L 14.078125 -3.921875 L 14.078125 0 L 1.78125 0 L 1.78125 -20.078125 L 14.078125 -20.078125 L 14.078125 -16.171875 Z M 6.671875 -16.171875 "/></g></g></g><g fill="#124ebc" fill-opacity="1"><g transform="translate(108.313425, 29.694679)"><g><path d="M 14.28125 -3.546875 L 6.78125 -3.546875 L 5.578125 0 L 0.453125 0 L 7.71875 -20.078125 L 13.390625 -20.078125 L 20.65625 0 L 15.484375 0 Z M 13.015625 -7.328125 L 10.53125 -14.671875 L 8.0625 -7.328125 Z M 13.015625 -7.328125 "/></g></g></g><g fill="#124ebc" fill-opacity="1"><g transform="translate(129.084698, 29.694679)"><g><path d="M 12.015625 0 L 7.84375 -7.578125 L 6.671875 -7.578125 L 6.671875 0 L 1.78125 0 L 1.78125 -20.078125 L 9.984375 -20.078125 C 11.566406 -20.078125 12.914062 -19.800781 14.03125 -19.25 C 15.144531 -18.695312 15.976562 -17.9375 16.53125 -16.96875 C 17.082031 -16.007812 17.359375 -14.941406 17.359375 -13.765625 C 17.359375 -12.429688 16.984375 -11.238281 16.234375 -10.1875 C 15.484375 -9.132812 14.375 -8.390625 12.90625 -7.953125 L 17.53125 0 Z M 6.671875 -11.046875 L 9.703125 -11.046875 C 10.597656 -11.046875 11.269531 -11.265625 11.71875 -11.703125 C 12.164062 -12.140625 12.390625 -12.757812 12.390625 -13.5625 C 12.390625 -14.320312 12.164062 -14.921875 11.71875 -15.359375 C 11.269531 -15.796875 10.597656 -16.015625 9.703125 -16.015625 L 6.671875 -16.015625 Z M 6.671875 -11.046875 "/></g></g></g></svg>