<svg xmlns="http://www.w3.org/2000/svg" xmlns:xlink="http://www.w3.org/1999/xlink" width="200" zoomAndPan="magnify" viewBox="0 0 150 56.249996" height="75" preserveAspectRatio="xMidYMid meet" version="1.0"><defs><g/><clipPath id="dcc86d47b5"><path d="M 2 41 L 15 41 L 15 55 L 2 55 Z M 2 41 " clip-rule="nonzero"/></clipPath><clipPath id="caa7eeaa6e"><path d="M -22.527344 27.578125 L 7.824219 -2.773438 L 38.703125 28.101562 L 8.347656 58.457031 Z M -22.527344 27.578125 " clip-rule="nonzero"/></clipPath><clipPath id="515d824594"><path d="M -22.527344 27.578125 L 7.824219 -2.773438 L 38.703125 28.101562 L 8.347656 58.457031 Z M -22.527344 27.578125 " clip-rule="nonzero"/></clipPath><clipPath id="4a1f38c10a"><path d="M 6 0 L 10 0 L 10 5 L 6 5 Z M 6 0 " clip-rule="nonzero"/></clipPath><clipPath id="0628829bac"><path d="M -22.527344 27.578125 L 7.824219 -2.773438 L 38.703125 28.101562 L 8.347656 58.457031 Z M -22.527344 27.578125 " clip-rule="nonzero"/></clipPath><clipPath id="5995c3f12d"><path d="M -22.527344 27.578125 L 7.824219 -2.773438 L 38.703125 28.101562 L 8.347656 58.457031 Z M -22.527344 27.578125 " clip-rule="nonzero"/></clipPath><clipPath id="debc2b178f"><path d="M 3.691406 1.359375 L 7.96875 -2.917969 L 12.265625 1.382812 L 7.988281 5.660156 Z M 3.691406 1.359375 " clip-rule="nonzero"/></clipPath><clipPath id="4af3f32cde"><path d="M 7 37 L 10 37 L 10 41 L 7 41 Z M 7 37 " clip-rule="nonzero"/></clipPath><clipPath id="f967a2a4ce"><path d="M -22.527344 27.578125 L 7.824219 -2.773438 L 38.703125 28.101562 L 8.347656 58.457031 Z M -22.527344 27.578125 " clip-rule="nonzero"/></clipPath><clipPath id="d09773d709"><path d="M -22.527344 27.578125 L 7.824219 -2.773438 L 38.703125 28.101562 L 8.347656 58.457031 Z M -22.527344 27.578125 " clip-rule="nonzero"/></clipPath><clipPath id="bd33ff222e"><path d="M 7 5 L 9 5 L 9 37 L 7 37 Z M 7 5 " clip-rule="nonzero"/></clipPath><clipPath id="a7e7bfac74"><path d="M -22.527344 27.578125 L 7.824219 -2.773438 L 38.703125 28.101562 L 8.347656 58.457031 Z M -22.527344 27.578125 " clip-rule="nonzero"/></clipPath><clipPath id="3a98950766"><path d="M -22.527344 27.578125 L 7.824219 -2.773438 L 38.703125 28.101562 L 8.347656 58.457031 Z M -22.527344 27.578125 " clip-rule="nonzero"/></clipPath></defs><g clip-path="url(#dcc86d47b5)"><g clip-path="url(#caa7eeaa6e)"><g clip-path="url(#515d824594)"><path fill="#ffffff" d="M 13.640625 44.566406 C 13.410156 46.128906 13.167969 47.675781 12.9375 49.238281 C 12.769531 50.457031 12.601562 51.703125 12.417969 52.9375 C 12.34375 53.425781 11.585938 53.675781 11.171875 53.671875 C 10.210938 53.652344 9.246094 53.664062 8.296875 53.660156 C 7.347656 53.652344 6.398438 53.648438 5.453125 53.644531 C 5.007812 53.640625 4.265625 53.402344 4.199219 52.894531 C 4.003906 51.660156 3.808594 50.425781 3.613281 49.195312 C 3.367188 47.628906 3.121094 46.0625 2.894531 44.511719 C 2.714844 43.421875 3.53125 42.570312 4.605469 42.578125 C 5.824219 42.566406 7.039062 42.589844 8.242188 42.59375 C 9.457031 42.585938 10.675781 42.605469 11.878906 42.613281 C 12.96875 42.601562 13.777344 43.476562 13.640625 44.566406 Z M 10.59375 41.925781 C 10.574219 41.5625 10.273438 41.261719 9.925781 41.257812 L 6.558594 41.257812 C 6.195312 41.242188 5.898438 41.539062 5.914062 41.902344 L 5.976562 41.902344 L 5.914062 41.902344 L 4.617188 41.898438 C 3.070312 41.890625 2 43.148438 2.230469 44.601562 C 2.492188 46.3125 2.722656 47.863281 2.949219 49.285156 C 3.160156 50.628906 3.339844 51.847656 3.519531 53.003906 C 3.652344 53.730469 4.507812 54.304688 5.441406 54.324219 C 6.402344 54.3125 7.351562 54.316406 8.300781 54.320312 C 9.25 54.328125 10.214844 54.347656 11.160156 54.351562 C 12.109375 54.355469 12.976562 53.777344 13.082031 53.035156 C 13.234375 51.898438 13.417969 50.664062 13.601562 49.339844 C 13.816406 47.917969 14.046875 46.355469 14.289062 44.679688 C 14.503906 43.226562 13.421875 41.957031 11.890625 41.933594 L 10.59375 41.925781 " fill-opacity="1" fill-rule="evenodd"/></g></g></g><g clip-path="url(#4a1f38c10a)"><g clip-path="url(#0628829bac)"><g clip-path="url(#5995c3f12d)"><g clip-path="url(#debc2b178f)"><path fill="#ffffff" d="M 7.96875 -2.464844 C 7.371094 -2.46875 6.882812 -1.980469 6.898438 -1.398438 L 6.914062 4.339844 C 6.929688 4.609375 7.136719 4.816406 7.390625 4.816406 L 8.621094 4.824219 C 8.875 4.824219 9.097656 4.605469 9.09375 4.351562 L 9.066406 -1.371094 C 9.0625 -1.972656 8.570312 -2.464844 7.96875 -2.464844 " fill-opacity="1" fill-rule="evenodd"/></g></g></g></g><g clip-path="url(#4af3f32cde)"><g clip-path="url(#f967a2a4ce)"><g clip-path="url(#d09773d709)"><path fill="#ffffff" d="M 7.410156 37.484375 C 7.316406 37.484375 7.238281 37.5625 7.222656 37.675781 L 7.25 40.566406 L 9.132812 40.589844 L 9.117188 37.683594 C 9.101562 37.574219 9.023438 37.492188 8.929688 37.492188 L 7.410156 37.484375 " fill-opacity="1" fill-rule="evenodd"/></g></g></g><g clip-path="url(#bd33ff222e)"><g clip-path="url(#a7e7bfac74)"><g clip-path="url(#3a98950766)"><path fill="#ffffff" d="M 7.550781 36.804688 L 8.78125 36.8125 L 8.625 5.488281 L 7.394531 5.480469 L 7.550781 36.804688 " fill-opacity="1" fill-rule="evenodd"/></g></g></g><g fill="#ffffff" fill-opacity="1"><g transform="translate(19.220129, 47.985553)"><g><path d="M 12.859375 -11.671875 C 12.859375 -10.296875 12.382812 -9.15625 11.4375 -8.25 C 10.5 -7.34375 9.070312 -6.890625 7.15625 -6.890625 L 3.984375 -6.890625 L 3.984375 0 L 1.828125 0 L 1.828125 -16.5 L 7.15625 -16.5 C 9.007812 -16.5 10.421875 -16.046875 11.390625 -15.140625 C 12.367188 -14.242188 12.859375 -13.085938 12.859375 -11.671875 Z M 7.15625 -8.65625 C 8.351562 -8.65625 9.234375 -8.914062 9.796875 -9.4375 C 10.367188 -9.957031 10.65625 -10.703125 10.65625 -11.671875 C 10.65625 -13.703125 9.488281 -14.71875 7.15625 -14.71875 L 3.984375 -14.71875 L 3.984375 -8.65625 Z M 7.15625 -8.65625 "/></g></g></g><g fill="#ffffff" fill-opacity="1"><g transform="translate(32.666074, 47.985553)"><g><path d="M 3.984375 -16.5 L 3.984375 0 L 1.828125 0 L 1.828125 -16.5 Z M 3.984375 -16.5 "/></g></g></g><g fill="#ffffff" fill-opacity="1"><g transform="translate(38.229047, 47.985553)"><g><path d="M 7.046875 0.171875 C 5.960938 0.171875 4.988281 -0.0195312 4.125 -0.40625 C 3.269531 -0.800781 2.597656 -1.335938 2.109375 -2.015625 C 1.617188 -2.703125 1.363281 -3.5 1.34375 -4.40625 L 3.640625 -4.40625 C 3.722656 -3.632812 4.039062 -2.984375 4.59375 -2.453125 C 5.15625 -1.921875 5.972656 -1.65625 7.046875 -1.65625 C 8.078125 -1.65625 8.890625 -1.910156 9.484375 -2.421875 C 10.078125 -2.941406 10.375 -3.601562 10.375 -4.40625 C 10.375 -5.03125 10.195312 -5.539062 9.84375 -5.9375 C 9.5 -6.332031 9.066406 -6.632812 8.546875 -6.84375 C 8.023438 -7.050781 7.320312 -7.269531 6.4375 -7.5 C 5.351562 -7.789062 4.484375 -8.078125 3.828125 -8.359375 C 3.171875 -8.640625 2.609375 -9.082031 2.140625 -9.6875 C 1.671875 -10.300781 1.4375 -11.117188 1.4375 -12.140625 C 1.4375 -13.046875 1.664062 -13.84375 2.125 -14.53125 C 2.582031 -15.226562 3.222656 -15.765625 4.046875 -16.140625 C 4.878906 -16.523438 5.832031 -16.71875 6.90625 -16.71875 C 8.457031 -16.71875 9.722656 -16.328125 10.703125 -15.546875 C 11.691406 -14.773438 12.25 -13.75 12.375 -12.46875 L 10.015625 -12.46875 C 9.929688 -13.101562 9.597656 -13.660156 9.015625 -14.140625 C 8.429688 -14.617188 7.660156 -14.859375 6.703125 -14.859375 C 5.796875 -14.859375 5.054688 -14.625 4.484375 -14.15625 C 3.921875 -13.695312 3.640625 -13.050781 3.640625 -12.21875 C 3.640625 -11.613281 3.804688 -11.117188 4.140625 -10.734375 C 4.484375 -10.359375 4.90625 -10.070312 5.40625 -9.875 C 5.90625 -9.6875 6.601562 -9.460938 7.5 -9.203125 C 8.59375 -8.910156 9.46875 -8.613281 10.125 -8.3125 C 10.789062 -8.019531 11.359375 -7.570312 11.828125 -6.96875 C 12.304688 -6.363281 12.546875 -5.539062 12.546875 -4.5 C 12.546875 -3.695312 12.332031 -2.9375 11.90625 -2.21875 C 11.476562 -1.507812 10.847656 -0.929688 10.015625 -0.484375 C 9.179688 -0.046875 8.191406 0.171875 7.046875 0.171875 Z M 7.046875 0.171875 "/></g></g></g><g fill="#ffffff" fill-opacity="1"><g transform="translate(51.864371, 47.985553)"><g><path d="M 1.015625 -8.265625 C 1.015625 -9.867188 1.378906 -11.3125 2.109375 -12.59375 C 2.835938 -13.882812 3.828125 -14.894531 5.078125 -15.625 C 6.328125 -16.351562 7.71875 -16.71875 9.25 -16.71875 C 11.050781 -16.71875 12.625 -16.28125 13.96875 -15.40625 C 15.3125 -14.539062 16.289062 -13.3125 16.90625 -11.71875 L 14.328125 -11.71875 C 13.867188 -12.707031 13.207031 -13.46875 12.34375 -14 C 11.488281 -14.539062 10.457031 -14.8125 9.25 -14.8125 C 8.101562 -14.8125 7.070312 -14.539062 6.15625 -14 C 5.238281 -13.46875 4.519531 -12.707031 4 -11.71875 C 3.476562 -10.738281 3.21875 -9.585938 3.21875 -8.265625 C 3.21875 -6.953125 3.476562 -5.800781 4 -4.8125 C 4.519531 -3.832031 5.238281 -3.070312 6.15625 -2.53125 C 7.070312 -2 8.101562 -1.734375 9.25 -1.734375 C 10.457031 -1.734375 11.488281 -1.992188 12.34375 -2.515625 C 13.207031 -3.046875 13.867188 -3.8125 14.328125 -4.8125 L 16.90625 -4.8125 C 16.289062 -3.226562 15.3125 -2.003906 13.96875 -1.140625 C 12.625 -0.285156 11.050781 0.140625 9.25 0.140625 C 7.71875 0.140625 6.328125 -0.21875 5.078125 -0.9375 C 3.828125 -1.65625 2.835938 -2.648438 2.109375 -3.921875 C 1.378906 -5.203125 1.015625 -6.648438 1.015625 -8.265625 Z M 1.015625 -8.265625 "/></g></g></g><g fill="#ffffff" fill-opacity="1"><g transform="translate(69.879141, 47.985553)"><g><path d="M 3.984375 -16.5 L 3.984375 0 L 1.828125 0 L 1.828125 -16.5 Z M 3.984375 -16.5 "/></g></g></g><g fill="#ffffff" fill-opacity="1"><g transform="translate(75.442115, 47.985553)"><g><path d="M 14.796875 0 L 12.640625 0 L 3.984375 -13.140625 L 3.984375 0 L 1.828125 0 L 1.828125 -16.515625 L 3.984375 -16.515625 L 12.640625 -3.40625 L 12.640625 -16.515625 L 14.796875 -16.515625 Z M 14.796875 0 "/></g></g></g><g fill="#ffffff" fill-opacity="1"><g transform="translate(91.82347, 47.985553)"><g><path d="M 11.578125 -3.671875 L 4.375 -3.671875 L 3.046875 0 L 0.78125 0 L 6.75 -16.40625 L 9.234375 -16.40625 L 15.171875 0 L 12.90625 0 Z M 10.953125 -5.421875 L 7.984375 -13.75 L 5 -5.421875 Z M 10.953125 -5.421875 "/></g></g></g><g fill="#ffffff" fill-opacity="1"><g transform="translate(107.518316, 47.985553)"><g><path d="M 7.046875 0.171875 C 5.960938 0.171875 4.988281 -0.0195312 4.125 -0.40625 C 3.269531 -0.800781 2.597656 -1.335938 2.109375 -2.015625 C 1.617188 -2.703125 1.363281 -3.5 1.34375 -4.40625 L 3.640625 -4.40625 C 3.722656 -3.632812 4.039062 -2.984375 4.59375 -2.453125 C 5.15625 -1.921875 5.972656 -1.65625 7.046875 -1.65625 C 8.078125 -1.65625 8.890625 -1.910156 9.484375 -2.421875 C 10.078125 -2.941406 10.375 -3.601562 10.375 -4.40625 C 10.375 -5.03125 10.195312 -5.539062 9.84375 -5.9375 C 9.5 -6.332031 9.066406 -6.632812 8.546875 -6.84375 C 8.023438 -7.050781 7.320312 -7.269531 6.4375 -7.5 C 5.351562 -7.789062 4.484375 -8.078125 3.828125 -8.359375 C 3.171875 -8.640625 2.609375 -9.082031 2.140625 -9.6875 C 1.671875 -10.300781 1.4375 -11.117188 1.4375 -12.140625 C 1.4375 -13.046875 1.664062 -13.84375 2.125 -14.53125 C 2.582031 -15.226562 3.222656 -15.765625 4.046875 -16.140625 C 4.878906 -16.523438 5.832031 -16.71875 6.90625 -16.71875 C 8.457031 -16.71875 9.722656 -16.328125 10.703125 -15.546875 C 11.691406 -14.773438 12.25 -13.75 12.375 -12.46875 L 10.015625 -12.46875 C 9.929688 -13.101562 9.597656 -13.660156 9.015625 -14.140625 C 8.429688 -14.617188 7.660156 -14.859375 6.703125 -14.859375 C 5.796875 -14.859375 5.054688 -14.625 4.484375 -14.15625 C 3.921875 -13.695312 3.640625 -13.050781 3.640625 -12.21875 C 3.640625 -11.613281 3.804688 -11.117188 4.140625 -10.734375 C 4.484375 -10.359375 4.90625 -10.070312 5.40625 -9.875 C 5.90625 -9.6875 6.601562 -9.460938 7.5 -9.203125 C 8.59375 -8.910156 9.46875 -8.613281 10.125 -8.3125 C 10.789062 -8.019531 11.359375 -7.570312 11.828125 -6.96875 C 12.304688 -6.363281 12.546875 -5.539062 12.546875 -4.5 C 12.546875 -3.695312 12.332031 -2.9375 11.90625 -2.21875 C 11.476562 -1.507812 10.847656 -0.929688 10.015625 -0.484375 C 9.179688 -0.046875 8.191406 0.171875 7.046875 0.171875 Z M 7.046875 0.171875 "/></g></g></g><g fill="#ffffff" fill-opacity="1"><g transform="translate(19.220129, 28.954547)"><g><path d="M 22.828125 -18.703125 L 22.828125 0 L 18.28125 0 L 18.28125 -11.21875 L 14.09375 0 L 10.421875 0 L 6.203125 -11.25 L 6.203125 0 L 1.65625 0 L 1.65625 -18.703125 L 7.03125 -18.703125 L 12.28125 -5.75 L 17.46875 -18.703125 Z M 22.828125 -18.703125 "/></g></g></g><g fill="#ffffff" fill-opacity="1"><g transform="translate(43.386918, 28.954547)"><g><path d="M 13.296875 -3.296875 L 6.3125 -3.296875 L 5.1875 0 L 0.421875 0 L 7.1875 -18.703125 L 12.46875 -18.703125 L 19.234375 0 L 14.40625 0 Z M 12.125 -6.8125 L 9.796875 -13.671875 L 7.515625 -6.8125 Z M 12.125 -6.8125 "/></g></g></g><g fill="#ffffff" fill-opacity="1"><g transform="translate(62.731004, 28.954547)"><g><path d="M 11.1875 0 L 7.296875 -7.0625 L 6.203125 -7.0625 L 6.203125 0 L 1.65625 0 L 1.65625 -18.703125 L 9.296875 -18.703125 C 10.773438 -18.703125 12.03125 -18.441406 13.0625 -17.921875 C 14.101562 -17.410156 14.878906 -16.707031 15.390625 -15.8125 C 15.910156 -14.914062 16.171875 -13.914062 16.171875 -12.8125 C 16.171875 -11.570312 15.816406 -10.460938 15.109375 -9.484375 C 14.410156 -8.503906 13.378906 -7.8125 12.015625 -7.40625 L 16.328125 0 Z M 6.203125 -10.28125 L 9.03125 -10.28125 C 9.863281 -10.28125 10.488281 -10.484375 10.90625 -10.890625 C 11.320312 -11.304688 11.53125 -11.882812 11.53125 -12.625 C 11.53125 -13.332031 11.320312 -13.890625 10.90625 -14.296875 C 10.488281 -14.710938 9.863281 -14.921875 9.03125 -14.921875 L 6.203125 -14.921875 Z M 6.203125 -10.28125 "/></g></g></g><g fill="#ffffff" fill-opacity="1"><g transform="translate(79.810288, 28.954547)"><g><path d="M 0.875 -9.375 C 0.875 -11.21875 1.273438 -12.863281 2.078125 -14.3125 C 2.878906 -15.757812 3.992188 -16.890625 5.421875 -17.703125 C 6.847656 -18.515625 8.46875 -18.921875 10.28125 -18.921875 C 12.5 -18.921875 14.398438 -18.332031 15.984375 -17.15625 C 17.566406 -15.976562 18.625 -14.378906 19.15625 -12.359375 L 14.140625 -12.359375 C 13.773438 -13.140625 13.25 -13.734375 12.5625 -14.140625 C 11.875 -14.554688 11.097656 -14.765625 10.234375 -14.765625 C 8.828125 -14.765625 7.6875 -14.273438 6.8125 -13.296875 C 5.945312 -12.316406 5.515625 -11.007812 5.515625 -9.375 C 5.515625 -7.738281 5.945312 -6.429688 6.8125 -5.453125 C 7.6875 -4.484375 8.828125 -4 10.234375 -4 C 11.097656 -4 11.875 -4.203125 12.5625 -4.609375 C 13.25 -5.015625 13.773438 -5.609375 14.140625 -6.390625 L 19.15625 -6.390625 C 18.625 -4.367188 17.566406 -2.773438 15.984375 -1.609375 C 14.398438 -0.441406 12.5 0.140625 10.28125 0.140625 C 8.46875 0.140625 6.847656 -0.265625 5.421875 -1.078125 C 3.992188 -1.890625 2.878906 -3.015625 2.078125 -4.453125 C 1.273438 -5.890625 0.875 -7.53125 0.875 -9.375 Z M 0.875 -9.375 "/></g></g></g><g fill="#ffffff" fill-opacity="1"><g transform="translate(99.820485, 28.954547)"><g><path d="M 6.203125 -15.046875 L 6.203125 -11.265625 L 12.3125 -11.265625 L 12.3125 -7.75 L 6.203125 -7.75 L 6.203125 -3.65625 L 13.109375 -3.65625 L 13.109375 0 L 1.65625 0 L 1.65625 -18.703125 L 13.109375 -18.703125 L 13.109375 -15.046875 Z M 6.203125 -15.046875 "/></g></g></g><g fill="#ffffff" fill-opacity="1"><g transform="translate(113.942201, 28.954547)"><g><path d="M 6.203125 -3.515625 L 12.171875 -3.515625 L 12.171875 0 L 1.65625 0 L 1.65625 -18.703125 L 6.203125 -18.703125 Z M 6.203125 -3.515625 "/></g></g></g><g fill="#ffffff" fill-opacity="1"><g transform="translate(126.358659, 28.954547)"><g><path d="M 10.5 0.1875 C 8.738281 0.1875 7.125 -0.21875 5.65625 -1.03125 C 4.195312 -1.851562 3.035156 -2.992188 2.171875 -4.453125 C 1.304688 -5.921875 0.875 -7.570312 0.875 -9.40625 C 0.875 -11.226562 1.304688 -12.867188 2.171875 -14.328125 C 3.035156 -15.785156 4.195312 -16.921875 5.65625 -17.734375 C 7.125 -18.554688 8.738281 -18.96875 10.5 -18.96875 C 12.257812 -18.96875 13.867188 -18.554688 15.328125 -17.734375 C 16.796875 -16.921875 17.953125 -15.785156 18.796875 -14.328125 C 19.640625 -12.867188 20.0625 -11.226562 20.0625 -9.40625 C 20.0625 -7.570312 19.632812 -5.921875 18.78125 -4.453125 C 17.925781 -2.992188 16.769531 -1.851562 15.3125 -1.03125 C 13.863281 -0.21875 12.257812 0.1875 10.5 0.1875 Z M 10.5 -3.96875 C 11.988281 -3.96875 13.179688 -4.460938 14.078125 -5.453125 C 14.972656 -6.453125 15.421875 -7.769531 15.421875 -9.40625 C 15.421875 -11.050781 14.972656 -12.367188 14.078125 -13.359375 C 13.179688 -14.347656 11.988281 -14.84375 10.5 -14.84375 C 8.988281 -14.84375 7.785156 -14.351562 6.890625 -13.375 C 5.992188 -12.394531 5.546875 -11.070312 5.546875 -9.40625 C 5.546875 -7.75 5.992188 -6.425781 6.890625 -5.4375 C 7.785156 -4.457031 8.988281 -3.96875 10.5 -3.96875 Z M 10.5 -3.96875 "/></g></g></g></svg>